<svg width="312" height="291" viewBox="0 0 312 291" fill="none" xmlns="http://www.w3.org/2000/svg">
<path d="M9.5 4.50001C9.5 -42.5 9.5 297.5 9.5 271.5M143 42.5C106.486 90.144 87.514 113.856 51 161.5L141.5 280M221.5 122C207.5 122 297 122 297 122V209.5M297 271.5C297 284.5 297 209.5 297 209.5M297 44C266 -4 181.5 0.5 170.5 66M170.5 182V59.5M134 186.5C170.5 271.5 261 265 297 209.5" stroke="#1E1E1E" stroke-width="18"/>
<path d="M135.13 285.037L146.6 272.908L157.784 285.301L135.13 285.037Z" fill="#1E1E1E" stroke="#1E1E1E"/>
<path d="M158.134 37.25L147.5 50.2117L136.866 37.25H158.134Z" fill="#1E1E1E" stroke="#1E1E1E"/>
<path d="M126 183H142L127 192L126 190V183Z" fill="#1E1E1E" stroke="#1E1E1E" stroke-width="0.2"/>
<path d="M123.5 183L126 190.5V183H123.5Z" fill="#1E1E1E" stroke="#1E1E1E" stroke-width="0.2"/>
<path d="M166 48.5L161.5 59.5L163 60L166 48.5Z" fill="#1E1E1E" stroke="#1E1E1E" stroke-width="0.2"/>
<path d="M311 49L304.5 39L289.5 48.5V49H311Z" fill="#1E1E1E" stroke="#1E1E1E" stroke-width="0.2"/>
</svg>
