<svg width="1920" height="360" viewBox="0 0 1920 360" fill="none" xmlns="http://www.w3.org/2000/svg">
<path fill-rule="evenodd" clip-rule="evenodd" d="M0 0L46.4 18C91.2 36 182.4 72 273.6 72C366.4 72 457.6 36 548.8 54C640 72 731.2 144 822.4 192C913.6 240 1006.4 264 1097.6 252C1188.8 240 1280 192 1371.2 156C1462.4 120 1553.6 96 1646.4 84C1737.6 72 1828.8 72 1873.6 72H1920V360H1873.6C1828.8 360 1737.6 360 1646.4 360C1553.6 360 1462.4 360 1371.2 360C1280 360 1188.8 360 1097.6 360C1006.4 360 913.6 360 822.4 360C731.2 360 640 360 548.8 360C457.6 360 366.4 360 273.6 360C182.4 360 91.2 360 46.4 360H0V0Z" fill="#D56062"/>
</svg>
