<svg width="1920" height="135" viewBox="0 0 1920 135" fill="none" xmlns="http://www.w3.org/2000/svg">
<path fill-rule="evenodd" clip-rule="evenodd" d="M0 128.597L46.4 104.665C91.2 80.7316 182.4 32.8658 273.6 44.8323C366.4 56.7987 457.6 128.597 548.8 134.581C640 140.564 731.2 80.7316 822.4 68.7652C913.6 56.7987 1006.4 92.6981 1097.6 92.6981C1188.8 92.6981 1280 56.7987 1371.2 62.782C1462.4 68.7652 1553.6 116.631 1646.4 128.597C1737.6 140.564 1828.8 116.631 1873.6 104.665L1920 92.6981V-15H1873.6C1828.8 -15 1737.6 -15 1646.4 -15C1553.6 -15 1462.4 -15 1371.2 -15C1280 -15 1188.8 -15 1097.6 -15C1006.4 -15 913.6 -15 822.4 -15C731.2 -15 640 -15 548.8 -15C457.6 -15 366.4 -15 273.6 -15C182.4 -15 91.2 -15 46.4 -15H0V128.597Z" fill="#D56062"/>
</svg>
