<svg width="1920" height="198" viewBox="0 0 1920 198" fill="none" xmlns="http://www.w3.org/2000/svg">
<path fill-rule="evenodd" clip-rule="evenodd" d="M1920 0L1856 9.66667C1792 19.3333 1664 38.6667 1536 58C1408 77.3333 1280 96.6667 1152 91.8333C1024 87 896 58 768 62.8333C640 67.6667 512 106.333 384 111.167C256 116 128 87 64 72.5L0 58V232L64 232C128 232 256 232 384 232C512 232 640 232 768 232C896 232 1024 232 1152 232C1280 232 1408 232 1536 232C1664 232 1792 232 1856 232L1920 232V0Z" fill="#D56062"/>
</svg>
